<svg xmlns="http://www.w3.org/2000/svg">
    <symbol id="flat-01" width="157" height="129" viewBox="0 0 157 129">
        <path d="M18.5 65V99.5H97V128.5H136V115H156.5V16.5H65V0H0V65H18.5Z" fill="#3595F6" fill-opacity="0.75"/>
    </symbol>
    <symbol id="flat-02" width="121" height="82" viewBox="0 0 121 82">
        <path d="M78.7293 0H0V82H121V29.1779H78.7293V0Z" fill="#3595F6" fill-opacity="0.75"/>
    </symbol>
    <symbol id="flat-03" width="121" height="76" viewBox="0 0 121 76">
        <path d="M73.5 75.5H0V0H121V52.8221H73.5V75.5Z" fill="#3595F6" fill-opacity="0.75"/>
    </symbol>
    <symbol id="flat-04" width="137" height="141" viewBox="0 0 137 141">
        <path d="M91 0H136.5V57H109.5V124H65V141H0V76.5H17V21.5H91V0Z" fill="#3595F6" fill-opacity="0.75"/>
    </symbol>
    <symbol id="flat-05" width="77" height="131" viewBox="0 0 77 131">
        <path d="M77 130.5V0H47.5V9.5H27.5V46.5H0.5V111H35.5V130.5H77Z" fill="#3595F6" fill-opacity="0.75"/>
    </symbol>
    <symbol id="flat-06" width="77" height="131" viewBox="0 0 77 131">
        <path d="M0 130.5V0H29.5V9.5H49.5V46.5H76.5V111H41.5V130.5H0Z" fill="#3595F6" fill-opacity="0.75"/>
    </symbol>
    <symbol id="flat-07" width="137" height="140" viewBox="0 0 137 140">
        <path d="M46 0H0.5V56H27.5V123H72V140H137V75.5H120V15.5H46V0Z" fill="#3595F6" fill-opacity="0.75"/>
    </symbol>
    <symbol id="flat-08" width="120" height="68" viewBox="0 0 120 68">
        <path d="M46.1925 52.6617H0V0H99.9163V4.6015H120V68H46.1925V52.6617Z" fill="#3595F6" fill-opacity="0.75"/>
    </symbol>
    <symbol id="flat-09" width="120" height="64" viewBox="0 0 120 64">
        <path d="M46 7.5H0V59H99.5V64H119.5V0H46V7.5Z" fill="#3595F6" fill-opacity="0.75"/>
    </symbol>
    <symbol id="flat-10" width="158" height="132" viewBox="0 0 158 132">
        <path d="M141 65V125H67V132H20.5V115H0V16.5H91.5V0H158V65H141Z" fill="#3595F6" fill-opacity="0.75"/>
    </symbol>
</svg>