<svg xmlns="http://www.w3.org/2000/svg">
    <symbol id="floor-02" width="290" height="42" viewBox="0 0 290 42">
        <path d="M0 6L220.8 14L290 0.299988V22L221.5 41.7L0 30.7V6Z" fill="#3595F6" fill-opacity="0.75"/>
    </symbol>
    <symbol id="floor-03" width="290" height="33" viewBox="0 0 290 33">
        <path d="M0 25V0L220.3 3.29999L290 0V20L220.7 33L0 25Z" fill="#3595F6" fill-opacity="0.75"/>
    </symbol>
    <symbol id="floor-04" width="290" height="30" viewBox="0 0 290 30">
        <path d="M0 25V0H221H290V23L222 30L0 25Z" fill="#3595F6" fill-opacity="0.75"/>
    </symbol>
    <symbol id="floor-05" width="289" height="29" viewBox="0 0 289 29">
        <path d="M0 29V4L221.3 0.299988L289 7V29H221" fill="#3595F6" fill-opacity="0.75"/>
    </symbol>
    <symbol id="floor-06" width="290" height="33" viewBox="0 0 290 33">
        <path d="M0 30V4L221.5 0.700012L290 11.7V33L221 26.3L0 30Z" fill="#3595F6" fill-opacity="0.75"/>
    </symbol>
    <symbol id="floor-07" width="292" height="45" viewBox="0 0 292 45">
        <path d="M0 36V12.3L221 0L292 23V44.3L221 32L0 36Z" fill="#3595F6" fill-opacity="0.75"/>
    </symbol>
    <symbol id="floor-08" width="292" height="50" viewBox="0 0 292 50">
        <path d="M0 42V17L222.2 0.700012L292 29.3V50L221.7 28.3L0 42Z" fill="#3595F6" fill-opacity="0.75"/>
    </symbol>
    <symbol id="floor-09" width="292" height="58" viewBox="0 0 292 58">
        <path d="M0 46V21L222.5 0.700012L292 37.3V58L220 29.3L0 46Z" fill="#3595F6" fill-opacity="0.75"/>
    </symbol>
    <symbol id="floor-10" width="292" height="66" viewBox="0 0 292 66">
        <path d="M0 49V25L223 0.299988L292 44.3V66L222.7 28L0 49Z" fill="#3595F6" fill-opacity="0.75"/>
    </symbol>
    <symbol id="floor-11" width="292" height="72" viewBox="0 0 292 72">
        <path d="M0 53V29L222.5 0.299988L292 51.3V72L221.7 29.7L0 53Z" fill="#3595F6" fill-opacity="0.75"/>
    </symbol>
    <symbol id="floor-12" width="293" height="79" viewBox="0 0 293 79">
        <path d="M0 57V33L222.3 0L293 59.3V79L223 28.3L0 57Z" fill="#3595F6" fill-opacity="0.75"/>
    </symbol>
    <symbol id="floor-13" width="291" height="85" viewBox="0 0 291 85">
        <path d="M0 59V35L221.2 0L291 64V85L222.3 26.7L0 59Z" fill="#3595F6" fill-opacity="0.75"/>
    </symbol>
    <symbol id="floor-14" width="291" height="91" viewBox="0 0 291 91">
        <path d="M0 63V38L222.3 0L291 70.3V91L222 27L0 63Z" fill="#3595F6" fill-opacity="0.75"/>
    </symbol>
    <symbol id="floor-15" width="291" height="102" viewBox="0 0 291 102">
        <path d="M0 69V44L220.8 0.300003L291 79.3V102L222 28.7L0 69Z" fill="#3595F6" fill-opacity="0.75"/>
    </symbol>
    <symbol id="floor-16" width="290" height="108" viewBox="0 0 290 108">
        <path d="M0 73V48L220 0L290 85V108L219.3 28.7L0 73Z" fill="#3595F6" fill-opacity="0.75"/>
    </symbol>
    <symbol id="floor-17" width="291" height="115" viewBox="0 0 291 115">
        <path d="M0 77V52L219.8 0L291 92.3V115L221.3 28.7L0 77Z" fill="#3595F6" fill-opacity="0.75"/>
    </symbol>
    <symbol id="floor-18" width="291" height="123" viewBox="0 0 291 123">
        <path d="M0 83V57L222 0.299988L291 102V123L221.7 31.3L0 83Z" fill="#3595F6" fill-opacity="0.75"/>
    </symbol>
</svg>