<svg width="377" height="379" viewBox="0 0 377 379" fill="none" xmlns="http://www.w3.org/2000/svg">
<path d="M360 65V125H286V132H239.5V115H219V16.5H310.5V0H377V65H360Z" fill="#3595F6" fill-opacity="0.75"/>
<path d="M286 132.5H240V184H339.5V189H359.5V125H286V132.5Z" fill="#3595F6" fill-opacity="0.75"/>
<path d="M286.192 236.662H240V184H339.916V188.602H360V252H286.192V236.662Z" fill="#3595F6" fill-opacity="0.75"/>
<path d="M286 237H240.5V293H267.5V360H312V377H377V312.5H360V252.5H286V237Z" fill="#3595F6" fill-opacity="0.75"/>
<path d="M190 378.5V248H219.5V257.5H239.5V294.5H266.5V359H231.5V378.5H190Z" fill="#3595F6" fill-opacity="0.75"/>
<path d="M189 378.5V248H159.5V257.5H139.5V294.5H112.5V359H147.5V378.5H189Z" fill="#3595F6" fill-opacity="0.75"/>
<path d="M93 236H138.5V293H111.5V360H67V377H2V312.5H19V257.5H93V236Z" fill="#3595F6" fill-opacity="0.75"/>
<path d="M91.5 257.5H18V182H139V234.822H91.5V257.5Z" fill="#3595F6" fill-opacity="0.75"/>
<path d="M96.7293 100H18V182H139V129.178H96.7293V100Z" fill="#3595F6" fill-opacity="0.75"/>
<path d="M18.5 65V99.5H97V128.5H136V115H156.5V16.5H65V0H0V65H18.5Z" fill="#3595F6" fill-opacity="0.75"/>
</svg>
